# xmcd
#
# Track frame offsets: 
#        150
#        15911
#        27136
#        37480
#        50043
#        62333
#        75477
#        87620
#        100034
#        114366
#        127645
#        141085
#        152098
#        165548
#        178905
#        192100
#        201704
#        214320
#        228554
#        240498
#        250312
#        262244
#        273995
#        287742
#        299104
#        311591
#        323936
#        335947
#
# Disc length: 4641 seconds
#
# Revision: 0
# Processed by: cddbd v1.5.2PL0 Copyright (c) Steve Scherf et al.
# Submitted via: ExactAudioCopy v1.0b3
#
DISCID=ab121f1c
DTITLE=Various Artist - Motor City Roots - A Family Affair CD2
DYEAR=2013
DGENRE=R&B
TTITLE0=Eddie Burns - Orange Driver
TTITLE1=Eddie Burns - Hard Hearted Woman
TTITLE2=Junior Walker and The All Stars - Twist Lackawanna
TTITLE3=Junior Walker and The All Stars - Willie's Blues
TTITLE4=The Five Quails - It's Been A Long Time
TTITLE5=The Five Quails - Get To School On Time
TTITLE6=Eddie Burns - Mean And Evil
TTITLE7=Eddie Burns - Thing To Do
TTITLE8=The Spinners - That's What Girls Are Made For
TTITLE9=The Spinners - Heebie Jeebies
TTITLE10=Johnny and Jackey - Carry Your Own Load
TTITLE11=The Spinners - Love (I'm So Glad I Found You)
TTITLE12=The Spinners - Sud Buster
TTITLE13=Johnny and Jackey - Someday We'll Be Together
TTITLE14=Shorty Long - Bad Willie
TTITLE15=The Spinners - What Did She Use
TTITLE16=The Spinners - Itching For My Baby
TTITLE17=Harvey and The Spinners - She Loves Me So
TTITLE18=Harvey and The Spinners - Whistling About You
TTITLE19=The Merced Bluenotes - Midnight Session Part 1
TTITLE20=The Spinners - I've Been Hurt
TTITLE21=The Spinners - I've Got Your Water Boiling, Baby (Gonna Cook 
TTITLE21=Your Goose)
TTITLE22=Shorty Long - I'll Be Here
TTITLE23=Shorty Long - Too Smart
TTITLE24=Johnny and Jackey - Do You See My Love For You Growing
TTITLE25=Harvey (Formerly Of The Moonglows) - Anyway You Wanta
TTITLE26=Bobby Smith and The Spinners - She Don't Love Me
TTITLE27=Bobby Smith and The Spinners - Too Young, Too Much, Too Soon
EXTD=
EXTT0=
EXTT1=
EXTT2=
EXTT3=
EXTT4=
EXTT5=
EXTT6=
EXTT7=
EXTT8=
EXTT9=
EXTT10=
EXTT11=
EXTT12=
EXTT13=
EXTT14=
EXTT15=
EXTT16=
EXTT17=
EXTT18=
EXTT19=
EXTT20=
EXTT21=
EXTT22=
EXTT23=
EXTT24=
EXTT25=
EXTT26=
EXTT27=
PLAYORDER=
